<mxfile host="Electron" agent="Mozilla/5.0 (Windows NT 10.0; Win64; x64) AppleWebKit/537.36 (KHTML, like Gecko) draw.io/25.0.1 Chrome/128.0.6613.186 Electron/32.2.6 Safari/537.36" version="25.0.1">
  <diagram name="Page-1" id="6s39YtxaYA6__S7jTZzM">
    <mxGraphModel dx="3000" dy="1430" grid="0" gridSize="10" guides="1" tooltips="1" connect="1" arrows="1" fold="1" page="0" pageScale="1" pageWidth="850" pageHeight="1100" math="0" shadow="0">
      <root>
        <mxCell id="0" />
        <mxCell id="1" parent="0" />
        <mxCell id="_b_yYx_KDHi3IG7aij4z-54" value="" style="group;strokeWidth=2;fontSize=20;" vertex="1" connectable="0" parent="1">
          <mxGeometry x="-483" y="677" width="643" height="252" as="geometry" />
        </mxCell>
        <mxCell id="_b_yYx_KDHi3IG7aij4z-55" value="&lt;p style=&quot;margin:0px;margin-top:6px;text-align:center;&quot;&gt;&lt;b&gt;Clerk&lt;/b&gt;&lt;/p&gt;&lt;hr style=&quot;border-style:solid;&quot;&gt;&lt;p style=&quot;margin:0px;margin-left:8px;&quot;&gt;&lt;br&gt;&lt;br&gt;&lt;/p&gt;" style="align=left;overflow=fill;html=1;dropTarget=0;whiteSpace=wrap;strokeWidth=2;fontSize=20;" vertex="1" parent="_b_yYx_KDHi3IG7aij4z-54">
          <mxGeometry x="139" width="504" height="252" as="geometry" />
        </mxCell>
        <mxCell id="_b_yYx_KDHi3IG7aij4z-56" value="" style="shape=component;jettyWidth=8;jettyHeight=4;strokeWidth=2;fontSize=20;" vertex="1" parent="_b_yYx_KDHi3IG7aij4z-55">
          <mxGeometry x="1" width="20" height="20" relative="1" as="geometry">
            <mxPoint x="-24" y="4" as="offset" />
          </mxGeometry>
        </mxCell>
        <mxCell id="_b_yYx_KDHi3IG7aij4z-57" value="«Component»&lt;br&gt;&lt;b&gt;: Backend SDK&lt;/b&gt;" style="html=1;dropTarget=0;whiteSpace=wrap;strokeWidth=2;fontSize=20;" vertex="1" parent="_b_yYx_KDHi3IG7aij4z-54">
          <mxGeometry x="438" y="93" width="180" height="90" as="geometry" />
        </mxCell>
        <mxCell id="_b_yYx_KDHi3IG7aij4z-58" value="" style="shape=module;jettyWidth=8;jettyHeight=4;strokeWidth=2;fontSize=20;" vertex="1" parent="_b_yYx_KDHi3IG7aij4z-57">
          <mxGeometry x="1" width="20" height="20" relative="1" as="geometry">
            <mxPoint x="-27" y="7" as="offset" />
          </mxGeometry>
        </mxCell>
        <mxCell id="_b_yYx_KDHi3IG7aij4z-59" value="«Component»&lt;br&gt;&lt;b&gt;: Frontend SDK&lt;/b&gt;" style="html=1;dropTarget=0;whiteSpace=wrap;strokeWidth=2;fontSize=20;" vertex="1" parent="_b_yYx_KDHi3IG7aij4z-54">
          <mxGeometry x="207" y="93" width="180" height="90" as="geometry" />
        </mxCell>
        <mxCell id="_b_yYx_KDHi3IG7aij4z-60" value="" style="shape=module;jettyWidth=8;jettyHeight=4;strokeWidth=2;fontSize=20;" vertex="1" parent="_b_yYx_KDHi3IG7aij4z-59">
          <mxGeometry x="1" width="20" height="20" relative="1" as="geometry">
            <mxPoint x="-27" y="7" as="offset" />
          </mxGeometry>
        </mxCell>
        <mxCell id="_b_yYx_KDHi3IG7aij4z-63" value="" style="ellipse;whiteSpace=wrap;html=1;align=center;aspect=fixed;fillColor=none;strokeColor=none;resizable=0;perimeter=centerPerimeter;rotatable=0;allowArrows=0;points=[];outlineConnect=1;strokeWidth=2;fontSize=20;" vertex="1" parent="_b_yYx_KDHi3IG7aij4z-54">
          <mxGeometry x="15" y="105" width="10" height="10" as="geometry" />
        </mxCell>
        <mxCell id="_b_yYx_KDHi3IG7aij4z-49" value="" style="group;strokeWidth=2;fontSize=20;" vertex="1" connectable="0" parent="1">
          <mxGeometry x="355" y="32" width="857" height="383" as="geometry" />
        </mxCell>
        <mxCell id="_b_yYx_KDHi3IG7aij4z-31" value="&lt;p style=&quot;margin:0px;margin-top:6px;text-align:center;&quot;&gt;&lt;b&gt;Backend&lt;/b&gt;&lt;/p&gt;&lt;hr style=&quot;border-style:solid;&quot;&gt;&lt;p style=&quot;margin:0px;margin-left:8px;&quot;&gt;&lt;br&gt;&lt;br&gt;&lt;/p&gt;" style="align=left;overflow=fill;html=1;dropTarget=0;whiteSpace=wrap;strokeWidth=2;fontSize=20;" vertex="1" parent="_b_yYx_KDHi3IG7aij4z-49">
          <mxGeometry x="91" width="766" height="383" as="geometry" />
        </mxCell>
        <mxCell id="_b_yYx_KDHi3IG7aij4z-32" value="" style="shape=component;jettyWidth=8;jettyHeight=4;strokeWidth=2;fontSize=20;" vertex="1" parent="_b_yYx_KDHi3IG7aij4z-31">
          <mxGeometry x="1" width="20" height="20" relative="1" as="geometry">
            <mxPoint x="-24" y="4" as="offset" />
          </mxGeometry>
        </mxCell>
        <mxCell id="_b_yYx_KDHi3IG7aij4z-33" value="«Component»&lt;br&gt;&lt;b&gt;: RBAC&lt;/b&gt;" style="html=1;dropTarget=0;whiteSpace=wrap;strokeWidth=2;fontSize=20;" vertex="1" parent="_b_yYx_KDHi3IG7aij4z-49">
          <mxGeometry x="662" y="92.5" width="180" height="90" as="geometry" />
        </mxCell>
        <mxCell id="_b_yYx_KDHi3IG7aij4z-34" value="" style="shape=module;jettyWidth=8;jettyHeight=4;strokeWidth=2;fontSize=20;" vertex="1" parent="_b_yYx_KDHi3IG7aij4z-33">
          <mxGeometry x="1" width="20" height="20" relative="1" as="geometry">
            <mxPoint x="-27" y="7" as="offset" />
          </mxGeometry>
        </mxCell>
        <mxCell id="_b_yYx_KDHi3IG7aij4z-35" value="«Component»&lt;br&gt;&lt;b&gt;: Express js&lt;/b&gt;" style="html=1;dropTarget=0;whiteSpace=wrap;strokeWidth=2;fontSize=20;" vertex="1" parent="_b_yYx_KDHi3IG7aij4z-49">
          <mxGeometry x="113" y="89.5" width="180" height="90" as="geometry" />
        </mxCell>
        <mxCell id="_b_yYx_KDHi3IG7aij4z-36" value="" style="shape=module;jettyWidth=8;jettyHeight=4;strokeWidth=2;fontSize=20;" vertex="1" parent="_b_yYx_KDHi3IG7aij4z-35">
          <mxGeometry x="1" width="20" height="20" relative="1" as="geometry">
            <mxPoint x="-27" y="7" as="offset" />
          </mxGeometry>
        </mxCell>
        <mxCell id="_b_yYx_KDHi3IG7aij4z-39" value="" style="ellipse;whiteSpace=wrap;html=1;align=center;aspect=fixed;fillColor=none;strokeColor=none;resizable=0;perimeter=centerPerimeter;rotatable=0;allowArrows=0;points=[];outlineConnect=1;strokeWidth=2;fontSize=20;" vertex="1" parent="_b_yYx_KDHi3IG7aij4z-49">
          <mxGeometry y="100" width="10" height="10" as="geometry" />
        </mxCell>
        <mxCell id="_b_yYx_KDHi3IG7aij4z-41" value="«Component»&lt;br&gt;&lt;b&gt;: Complaint Management&lt;/b&gt;" style="html=1;dropTarget=0;whiteSpace=wrap;strokeWidth=2;fontSize=20;" vertex="1" parent="_b_yYx_KDHi3IG7aij4z-49">
          <mxGeometry x="113" y="228" width="218" height="109" as="geometry" />
        </mxCell>
        <mxCell id="_b_yYx_KDHi3IG7aij4z-42" value="" style="shape=module;jettyWidth=8;jettyHeight=4;strokeWidth=2;fontSize=20;" vertex="1" parent="_b_yYx_KDHi3IG7aij4z-41">
          <mxGeometry x="1" width="20" height="20" relative="1" as="geometry">
            <mxPoint x="-27" y="7" as="offset" />
          </mxGeometry>
        </mxCell>
        <mxCell id="_b_yYx_KDHi3IG7aij4z-43" value="«Component»&lt;br&gt;&lt;b&gt;: Survey and Complaint Management&lt;/b&gt;" style="html=1;dropTarget=0;whiteSpace=wrap;strokeWidth=2;fontSize=20;" vertex="1" parent="_b_yYx_KDHi3IG7aij4z-49">
          <mxGeometry x="355" y="139" width="268" height="109" as="geometry" />
        </mxCell>
        <mxCell id="_b_yYx_KDHi3IG7aij4z-44" value="" style="shape=module;jettyWidth=8;jettyHeight=4;strokeWidth=2;fontSize=20;" vertex="1" parent="_b_yYx_KDHi3IG7aij4z-43">
          <mxGeometry x="1" width="20" height="20" relative="1" as="geometry">
            <mxPoint x="-27" y="7" as="offset" />
          </mxGeometry>
        </mxCell>
        <mxCell id="_b_yYx_KDHi3IG7aij4z-45" value="«Component»&lt;br&gt;&lt;b&gt;: Event Management&lt;/b&gt;" style="html=1;dropTarget=0;whiteSpace=wrap;strokeWidth=2;fontSize=20;" vertex="1" parent="_b_yYx_KDHi3IG7aij4z-49">
          <mxGeometry x="646" y="236" width="196" height="104" as="geometry" />
        </mxCell>
        <mxCell id="_b_yYx_KDHi3IG7aij4z-46" value="" style="shape=module;jettyWidth=8;jettyHeight=4;strokeWidth=2;fontSize=20;" vertex="1" parent="_b_yYx_KDHi3IG7aij4z-45">
          <mxGeometry x="1" width="20" height="20" relative="1" as="geometry">
            <mxPoint x="-27" y="7" as="offset" />
          </mxGeometry>
        </mxCell>
        <mxCell id="_b_yYx_KDHi3IG7aij4z-52" value="&lt;span&gt;Rest API&lt;/span&gt;" style="text;html=1;align=center;verticalAlign=middle;resizable=0;points=[];autosize=1;strokeColor=none;fillColor=none;strokeWidth=2;fontSize=20;" vertex="1" parent="_b_yYx_KDHi3IG7aij4z-49">
          <mxGeometry x="-23" y="102" width="96" height="36" as="geometry" />
        </mxCell>
        <mxCell id="_b_yYx_KDHi3IG7aij4z-5" value="" style="rounded=0;orthogonalLoop=1;jettySize=auto;html=1;endArrow=halfCircle;endFill=0;endSize=6;strokeWidth=2;sketch=0;fontSize=20;exitX=1;exitY=0.5;exitDx=0;exitDy=0;" edge="1" parent="1" source="_b_yYx_KDHi3IG7aij4z-8">
          <mxGeometry relative="1" as="geometry">
            <mxPoint x="110" y="171.75000000000006" as="sourcePoint" />
            <mxPoint x="315" y="166" as="targetPoint" />
          </mxGeometry>
        </mxCell>
        <mxCell id="_b_yYx_KDHi3IG7aij4z-6" value="" style="rounded=0;orthogonalLoop=1;jettySize=auto;html=1;endArrow=oval;endFill=0;sketch=0;sourcePerimeterSpacing=0;targetPerimeterSpacing=0;endSize=10;strokeWidth=2;fontSize=20;exitX=0;exitY=0.5;exitDx=0;exitDy=0;" edge="1" parent="1" source="_b_yYx_KDHi3IG7aij4z-35">
          <mxGeometry relative="1" as="geometry">
            <mxPoint x="136" y="-46" as="sourcePoint" />
            <mxPoint x="316" y="166" as="targetPoint" />
          </mxGeometry>
        </mxCell>
        <mxCell id="_b_yYx_KDHi3IG7aij4z-7" value="" style="ellipse;whiteSpace=wrap;html=1;align=center;aspect=fixed;fillColor=none;strokeColor=none;resizable=0;perimeter=centerPerimeter;rotatable=0;allowArrows=0;points=[];outlineConnect=1;strokeWidth=2;fontSize=20;" vertex="1" parent="1">
          <mxGeometry x="315" y="166.5" width="10" height="10" as="geometry" />
        </mxCell>
        <mxCell id="_b_yYx_KDHi3IG7aij4z-25" value="" style="rounded=0;orthogonalLoop=1;jettySize=auto;html=1;endArrow=halfCircle;endFill=0;endSize=6;strokeWidth=2;sketch=0;fontSize=20;exitX=0.212;exitY=0.999;exitDx=0;exitDy=0;exitPerimeter=0;" edge="1" parent="1" source="_b_yYx_KDHi3IG7aij4z-31">
          <mxGeometry relative="1" as="geometry">
            <mxPoint x="230" y="624" as="sourcePoint" />
            <mxPoint x="608" y="564" as="targetPoint" />
          </mxGeometry>
        </mxCell>
        <mxCell id="_b_yYx_KDHi3IG7aij4z-27" value="" style="ellipse;whiteSpace=wrap;html=1;align=center;aspect=fixed;fillColor=none;strokeColor=none;resizable=0;perimeter=centerPerimeter;rotatable=0;allowArrows=0;points=[];outlineConnect=1;strokeWidth=2;fontSize=20;" vertex="1" parent="1">
          <mxGeometry x="-394" y="1162" width="10" height="10" as="geometry" />
        </mxCell>
        <mxCell id="_b_yYx_KDHi3IG7aij4z-48" value="" style="group;strokeWidth=2;fontSize=20;" vertex="1" connectable="0" parent="1">
          <mxGeometry x="-483" y="28" width="643" height="252" as="geometry" />
        </mxCell>
        <mxCell id="Ymocmn9K-O4JNLW9c8iD-32" value="&lt;p style=&quot;margin:0px;margin-top:6px;text-align:center;&quot;&gt;&lt;b&gt;Frontend&lt;/b&gt;&lt;/p&gt;&lt;hr style=&quot;border-style:solid;&quot;&gt;&lt;p style=&quot;margin:0px;margin-left:8px;&quot;&gt;&lt;br&gt;&lt;br&gt;&lt;/p&gt;" style="align=left;overflow=fill;html=1;dropTarget=0;whiteSpace=wrap;strokeWidth=2;fontSize=20;" parent="_b_yYx_KDHi3IG7aij4z-48" vertex="1">
          <mxGeometry x="139" width="504" height="252" as="geometry" />
        </mxCell>
        <mxCell id="Ymocmn9K-O4JNLW9c8iD-33" value="" style="shape=component;jettyWidth=8;jettyHeight=4;strokeWidth=2;fontSize=20;" parent="Ymocmn9K-O4JNLW9c8iD-32" vertex="1">
          <mxGeometry x="1" width="20" height="20" relative="1" as="geometry">
            <mxPoint x="-24" y="4" as="offset" />
          </mxGeometry>
        </mxCell>
        <mxCell id="_b_yYx_KDHi3IG7aij4z-8" value="«Component»&lt;br&gt;&lt;b&gt;: React Js&lt;/b&gt;" style="html=1;dropTarget=0;whiteSpace=wrap;strokeWidth=2;fontSize=20;" vertex="1" parent="_b_yYx_KDHi3IG7aij4z-48">
          <mxGeometry x="438" y="93" width="180" height="90" as="geometry" />
        </mxCell>
        <mxCell id="_b_yYx_KDHi3IG7aij4z-9" value="" style="shape=module;jettyWidth=8;jettyHeight=4;strokeWidth=2;fontSize=20;" vertex="1" parent="_b_yYx_KDHi3IG7aij4z-8">
          <mxGeometry x="1" width="20" height="20" relative="1" as="geometry">
            <mxPoint x="-27" y="7" as="offset" />
          </mxGeometry>
        </mxCell>
        <mxCell id="_b_yYx_KDHi3IG7aij4z-10" value="«Component»&lt;br&gt;&lt;b&gt;: Authentication&lt;/b&gt;" style="html=1;dropTarget=0;whiteSpace=wrap;strokeWidth=2;fontSize=20;" vertex="1" parent="_b_yYx_KDHi3IG7aij4z-48">
          <mxGeometry x="201" y="93" width="180" height="90" as="geometry" />
        </mxCell>
        <mxCell id="_b_yYx_KDHi3IG7aij4z-11" value="" style="shape=module;jettyWidth=8;jettyHeight=4;strokeWidth=2;fontSize=20;" vertex="1" parent="_b_yYx_KDHi3IG7aij4z-10">
          <mxGeometry x="1" width="20" height="20" relative="1" as="geometry">
            <mxPoint x="-27" y="7" as="offset" />
          </mxGeometry>
        </mxCell>
        <mxCell id="_b_yYx_KDHi3IG7aij4z-12" value="" style="rounded=1;orthogonalLoop=1;jettySize=auto;html=1;endArrow=halfCircle;endFill=0;endSize=6;strokeWidth=2;sketch=0;fontSize=20;exitX=0.5;exitY=1;exitDx=0;exitDy=0;curved=0;" edge="1" parent="_b_yYx_KDHi3IG7aij4z-48" source="_b_yYx_KDHi3IG7aij4z-10">
          <mxGeometry relative="1" as="geometry">
            <mxPoint x="119" y="114" as="sourcePoint" />
            <mxPoint x="292" y="387" as="targetPoint" />
          </mxGeometry>
        </mxCell>
        <mxCell id="_b_yYx_KDHi3IG7aij4z-14" value="" style="ellipse;whiteSpace=wrap;html=1;align=center;aspect=fixed;fillColor=none;strokeColor=none;resizable=0;perimeter=centerPerimeter;rotatable=0;allowArrows=0;points=[];outlineConnect=1;strokeWidth=2;fontSize=20;" vertex="1" parent="_b_yYx_KDHi3IG7aij4z-48">
          <mxGeometry x="20" y="147" width="10" height="10" as="geometry" />
        </mxCell>
        <mxCell id="_b_yYx_KDHi3IG7aij4z-13" value="" style="rounded=1;orthogonalLoop=1;jettySize=auto;html=1;endArrow=oval;endFill=0;sketch=0;sourcePerimeterSpacing=0;targetPerimeterSpacing=0;endSize=10;strokeWidth=2;fontSize=20;exitX=0.5;exitY=0;exitDx=0;exitDy=0;curved=0;" edge="1" parent="_b_yYx_KDHi3IG7aij4z-48" source="_b_yYx_KDHi3IG7aij4z-59">
          <mxGeometry relative="1" as="geometry">
            <mxPoint x="46" y="293" as="sourcePoint" />
            <mxPoint x="292" y="389" as="targetPoint" />
            <Array as="points" />
          </mxGeometry>
        </mxCell>
        <mxCell id="_b_yYx_KDHi3IG7aij4z-50" value="&lt;span&gt;Backend API&lt;/span&gt;" style="text;html=1;align=center;verticalAlign=middle;resizable=0;points=[];autosize=1;strokeColor=none;fillColor=none;strokeWidth=2;fontSize=20;" vertex="1" parent="1">
          <mxGeometry x="172" y="131.5" width="133" height="36" as="geometry" />
        </mxCell>
        <mxCell id="_b_yYx_KDHi3IG7aij4z-51" value="" style="group;strokeWidth=2;fontSize=20;" vertex="1" connectable="0" parent="1">
          <mxGeometry x="608" y="563" width="448" height="406" as="geometry" />
        </mxCell>
        <mxCell id="_b_yYx_KDHi3IG7aij4z-19" value="" style="group;strokeWidth=2;fontSize=20;" vertex="1" connectable="0" parent="_b_yYx_KDHi3IG7aij4z-51">
          <mxGeometry x="74" y="219" width="374" height="187" as="geometry" />
        </mxCell>
        <mxCell id="Ymocmn9K-O4JNLW9c8iD-42" value="&lt;p style=&quot;margin:0px;margin-top:6px;text-align:center;&quot;&gt;&lt;b&gt;Database&lt;/b&gt;&lt;/p&gt;&lt;hr style=&quot;border-style:solid;&quot;&gt;&lt;p style=&quot;margin:0px;margin-left:8px;&quot;&gt;&lt;br&gt;&lt;/p&gt;" style="align=left;overflow=fill;html=1;dropTarget=0;whiteSpace=wrap;strokeWidth=2;fontSize=20;" parent="_b_yYx_KDHi3IG7aij4z-19" vertex="1">
          <mxGeometry width="374" height="187" as="geometry" />
        </mxCell>
        <mxCell id="Ymocmn9K-O4JNLW9c8iD-43" value="" style="shape=component;jettyWidth=8;jettyHeight=4;strokeWidth=2;fontSize=20;" parent="Ymocmn9K-O4JNLW9c8iD-42" vertex="1">
          <mxGeometry x="1" width="20" height="20" relative="1" as="geometry">
            <mxPoint x="-24" y="4" as="offset" />
          </mxGeometry>
        </mxCell>
        <mxCell id="_b_yYx_KDHi3IG7aij4z-17" value="«Component»&lt;br&gt;&lt;b&gt;: MongoDB&lt;/b&gt;" style="html=1;dropTarget=0;whiteSpace=wrap;strokeWidth=2;fontSize=20;" vertex="1" parent="_b_yYx_KDHi3IG7aij4z-19">
          <mxGeometry x="91" y="65" width="180" height="90" as="geometry" />
        </mxCell>
        <mxCell id="_b_yYx_KDHi3IG7aij4z-18" value="" style="shape=module;jettyWidth=8;jettyHeight=4;strokeWidth=2;fontSize=20;" vertex="1" parent="_b_yYx_KDHi3IG7aij4z-17">
          <mxGeometry x="1" width="20" height="20" relative="1" as="geometry">
            <mxPoint x="-27" y="7" as="offset" />
          </mxGeometry>
        </mxCell>
        <mxCell id="_b_yYx_KDHi3IG7aij4z-28" value="&lt;font&gt;Mongoose&lt;/font&gt;" style="text;html=1;align=center;verticalAlign=middle;resizable=0;points=[];autosize=1;strokeColor=none;fillColor=none;rotation=90;strokeWidth=2;fontSize=20;" vertex="1" parent="_b_yYx_KDHi3IG7aij4z-51">
          <mxGeometry x="-33" y="96" width="111" height="36" as="geometry" />
        </mxCell>
        <mxCell id="_b_yYx_KDHi3IG7aij4z-26" value="" style="rounded=1;orthogonalLoop=1;jettySize=auto;html=1;endArrow=oval;endFill=0;sketch=0;sourcePerimeterSpacing=0;targetPerimeterSpacing=0;endSize=10;strokeWidth=2;fontSize=20;exitX=0;exitY=0.25;exitDx=0;exitDy=0;curved=0;" edge="1" parent="1" source="_b_yYx_KDHi3IG7aij4z-17">
          <mxGeometry relative="1" as="geometry">
            <mxPoint x="-409" y="1163" as="sourcePoint" />
            <mxPoint x="608" y="563" as="targetPoint" />
            <Array as="points">
              <mxPoint x="608" y="872" />
            </Array>
          </mxGeometry>
        </mxCell>
        <mxCell id="_b_yYx_KDHi3IG7aij4z-53" value="&lt;font&gt;MongoDB&lt;/font&gt;" style="text;html=1;align=center;verticalAlign=middle;resizable=0;points=[];autosize=1;strokeColor=none;fillColor=none;rotation=90;strokeWidth=2;fontSize=20;" vertex="1" parent="1">
          <mxGeometry x="575" y="474" width="107" height="36" as="geometry" />
        </mxCell>
        <mxCell id="_b_yYx_KDHi3IG7aij4z-65" value="&lt;font&gt;Clerk API&lt;/font&gt;" style="text;html=1;align=center;verticalAlign=middle;resizable=0;points=[];autosize=1;strokeColor=none;fillColor=none;rotation=90;strokeWidth=2;fontSize=20;" vertex="1" parent="1">
          <mxGeometry x="-224" y="331" width="101" height="36" as="geometry" />
        </mxCell>
        <mxCell id="_b_yYx_KDHi3IG7aij4z-66" value="&lt;font&gt;Authentication API&lt;/font&gt;" style="text;html=1;align=center;verticalAlign=middle;resizable=0;points=[];autosize=1;strokeColor=none;fillColor=none;rotation=90;strokeWidth=2;fontSize=20;" vertex="1" parent="1">
          <mxGeometry x="-258" y="533" width="181" height="36" as="geometry" />
        </mxCell>
        <mxCell id="_b_yYx_KDHi3IG7aij4z-67" value="" style="rounded=1;orthogonalLoop=1;jettySize=auto;html=1;endArrow=halfCircle;endFill=0;endSize=6;strokeWidth=2;sketch=0;fontSize=20;exitX=0;exitY=0.75;exitDx=0;exitDy=0;curved=0;" edge="1" parent="1" source="_b_yYx_KDHi3IG7aij4z-35">
          <mxGeometry relative="1" as="geometry">
            <mxPoint x="228" y="221" as="sourcePoint" />
            <mxPoint x="319" y="446" as="targetPoint" />
            <Array as="points">
              <mxPoint x="317" y="191" />
            </Array>
          </mxGeometry>
        </mxCell>
        <mxCell id="_b_yYx_KDHi3IG7aij4z-68" value="" style="rounded=1;orthogonalLoop=1;jettySize=auto;html=1;endArrow=oval;endFill=0;sketch=0;sourcePerimeterSpacing=0;targetPerimeterSpacing=0;endSize=10;strokeWidth=2;fontSize=20;exitX=1;exitY=0.5;exitDx=0;exitDy=0;curved=0;" edge="1" parent="1" source="_b_yYx_KDHi3IG7aij4z-57">
          <mxGeometry relative="1" as="geometry">
            <mxPoint x="324" y="799" as="sourcePoint" />
            <mxPoint x="319" y="446" as="targetPoint" />
            <Array as="points">
              <mxPoint x="319" y="815" />
            </Array>
          </mxGeometry>
        </mxCell>
        <mxCell id="_b_yYx_KDHi3IG7aij4z-69" value="&lt;font&gt;Clerk API&lt;/font&gt;" style="text;html=1;align=center;verticalAlign=middle;resizable=0;points=[];autosize=1;strokeColor=none;fillColor=none;rotation=90;strokeWidth=2;fontSize=20;" vertex="1" parent="1">
          <mxGeometry x="290" y="284" width="101" height="36" as="geometry" />
        </mxCell>
        <mxCell id="_b_yYx_KDHi3IG7aij4z-70" value="&lt;font&gt;Authorization API&lt;/font&gt;" style="text;html=1;align=center;verticalAlign=middle;resizable=0;points=[];autosize=1;strokeColor=none;fillColor=none;rotation=90;strokeWidth=2;fontSize=20;" vertex="1" parent="1">
          <mxGeometry x="261" y="570" width="171" height="36" as="geometry" />
        </mxCell>
      </root>
    </mxGraphModel>
  </diagram>
</mxfile>
